# WaveFront *.obj file (generated by Autodesk ATF)

mtllib Scaled_Platform.mtl

g Main Platform

v 0.050000 0.000000 0.050000
v 0.040000 0.030000 0.040000
v -0.040000 0.030000 0.040000
v -0.041000 0.028000 0.040667
v -0.050000 0.000000 0.050000
v 0.040000 0.030000 -0.040000
v 0.050000 -0.000000 -0.050000
v -0.050000 -0.000000 -0.050000
v -0.041000 0.028000 -0.040667
v -0.040000 0.030000 -0.040000
v 0.020000 0.030000 -0.005000
v 0.020000 0.030000 0.005000
v 0.020000 0.015000 0.005000
v 0.020000 0.015000 -0.005000
v 0.030000 0.030000 0.005000
v 0.030000 0.015000 0.005000
v 0.030000 0.030000 -0.005000
v 0.030000 0.015000 -0.005000
v -0.020000 0.030000 0.005000
v -0.020000 0.030000 -0.005000
v -0.020000 0.015000 -0.005000
v -0.020000 0.015000 0.005000
v -0.030000 0.030000 -0.005000
v -0.030000 0.015000 -0.005000
v -0.030000 0.030000 0.005000
v -0.030000 0.015000 0.005000
vt -0.000000 0.000000 0.000000
vt -0.000000 10.000000 0.000000
vt -2.951459 0.900000 0.000000
vt -3.162278 9.000000 0.000000
vt -3.162278 1.000000 0.000000
vt -0.000000 1.000000 0.000000
vt -0.000000 9.000000 0.000000
vt -0.210819 0.900000 0.000000
vt -3.162278 10.000000 0.000000
vt -3.162278 0.000000 0.000000
vt -3.162278 1.000000 0.000000
vt -0.000000 0.000000 0.000000
vt -3.162278 9.000000 0.000000
vt 0.000000 10.000000 0.000000
vt 0.000000 0.933333 0.000000
vt 0.000000 9.066667 0.000000
vt -2.941088 -0.000000 0.000000
vt -2.941088 10.000000 0.000000
vt 0.000000 1.000000 0.000000
vt 0.000000 9.000000 0.000000
vt -0.223607 0.933333 0.000000
vt -0.223607 9.066667 0.000000
vt -1.000000 -0.000000 0.000000
vt -0.000000 0.000000 0.000000
vt -1.000000 1.500000 0.000000
vt 0.000000 1.500000 0.000000
vt -1.000000 0.000000 0.000000
vt -0.000000 0.000000 0.000000
vt -1.000000 1.500000 0.000000
vt -0.000000 1.500000 0.000000
vt -1.000000 0.000000 0.000000
vt -0.000000 0.000000 0.000000
vt -1.000000 1.500000 0.000000
vt -0.000000 1.500000 0.000000
vt -1.000000 0.000000 0.000000
vt -0.000000 0.000000 0.000000
vt -1.000000 1.500000 0.000000
vt -0.000000 1.500000 0.000000
vt 0.500000 0.500000 0.000000
vt -0.500000 0.500000 0.000000
vt 0.500000 -0.500000 0.000000
vt -0.500000 -0.500000 0.000000
vt -1.000000 0.000000 0.000000
vt -0.000000 0.000000 0.000000
vt -1.000000 1.500000 0.000000
vt -0.000000 1.500000 0.000000
vt -1.000000 0.000000 0.000000
vt -0.000000 0.000000 0.000000
vt -1.000000 1.500000 0.000000
vt -0.000000 1.500000 0.000000
vt -1.000000 -0.000000 0.000000
vt -0.000000 0.000000 0.000000
vt -1.000000 1.500000 0.000000
vt 0.000000 1.500000 0.000000
vt -1.000000 0.000000 0.000000
vt -0.000000 0.000000 0.000000
vt -1.000000 1.500000 0.000000
vt 0.000000 1.500000 0.000000
vt -0.500000 -0.500000 0.000000
vt 0.500000 -0.500000 0.000000
vt -0.500000 0.500000 0.000000
vt 0.500000 0.500000 0.000000
vt 4.000000 -4.000000 0.000000
vt -2.000000 -0.500000 0.000000
vt -4.000000 -4.000000 0.000000
vt -3.000000 -0.500000 0.000000
vt -3.000000 0.500000 0.000000
vt 4.000000 4.000000 0.000000
vt 3.000000 0.500000 0.000000
vt 3.000000 -0.500000 0.000000
vt 2.000000 -0.500000 0.000000
vt 2.000000 0.500000 0.000000
vt -4.000000 4.000000 0.000000
vt -2.000000 0.500000 0.000000
vt -5.000000 -5.000000 0.000000
vt 5.000000 -5.000000 0.000000
vt -5.000000 5.000000 0.000000
vt 5.000000 5.000000 0.000000
vn 0.000000 31.622777 94.868330
vn 0.000000 31.622777 94.868330
vn 0.000000 31.622777 94.868330
vn 0.000000 31.622777 94.868330
vn 0.000000 31.622777 94.868330
vn -0.000000 31.622777 -94.868330
vn -0.000000 31.622777 -94.868330
vn -0.000000 31.622777 -94.868330
vn -0.000000 31.622777 -94.868330
vn -0.000000 31.622777 -94.868330
vn 94.868330 31.622775 -0.000000
vn 94.868330 31.622775 -0.000000
vn 94.868330 31.622775 -0.000000
vn 94.868330 31.622775 -0.000000
vn -95.202857 30.600916 -0.000000
vn -95.202857 30.600916 -0.000000
vn -95.202857 30.600916 -0.000000
vn -95.202857 30.600916 -0.000000
vn -89.442719 44.721360 -0.000000
vn -89.442719 44.721360 -0.000000
vn -89.442719 44.721360 -0.000000
vn -89.442719 44.721360 -0.000000
vn 100.000000 0.000000 0.000000
vn 100.000000 0.000000 0.000000
vn 100.000000 0.000000 0.000000
vn 100.000000 0.000000 0.000000
vn 0.000000 -0.000000 -100.000000
vn 0.000000 -0.000000 -100.000000
vn 0.000000 -0.000000 -100.000000
vn 0.000000 -0.000000 -100.000000
vn -100.000000 0.000000 0.000000
vn -100.000000 0.000000 0.000000
vn -100.000000 0.000000 0.000000
vn -100.000000 0.000000 0.000000
vn 0.000000 0.000000 100.000000
vn 0.000000 0.000000 100.000000
vn 0.000000 0.000000 100.000000
vn 0.000000 0.000000 100.000000
vn -0.000000 100.000000 -0.000000
vn -0.000000 100.000000 -0.000000
vn -0.000000 100.000000 -0.000000
vn -0.000000 100.000000 -0.000000
vn -100.000000 0.000000 0.000000
vn -100.000000 0.000000 0.000000
vn -100.000000 0.000000 0.000000
vn -100.000000 0.000000 0.000000
vn 0.000000 0.000000 100.000000
vn 0.000000 0.000000 100.000000
vn 0.000000 0.000000 100.000000
vn 0.000000 0.000000 100.000000
vn 100.000000 -0.000000 0.000000
vn 100.000000 -0.000000 0.000000
vn 100.000000 -0.000000 0.000000
vn 100.000000 -0.000000 0.000000
vn 0.000000 -0.000000 -100.000000
vn 0.000000 -0.000000 -100.000000
vn 0.000000 -0.000000 -100.000000
vn 0.000000 -0.000000 -100.000000
vn -0.000000 100.000000 -0.000000
vn -0.000000 100.000000 -0.000000
vn -0.000000 100.000000 -0.000000
vn -0.000000 100.000000 -0.000000
vn 0.000000 100.000000 -0.000000
vn 0.000000 100.000000 -0.000000
vn 0.000000 100.000000 -0.000000
vn 0.000000 100.000000 -0.000000
vn 0.000000 100.000000 -0.000000
vn 0.000000 100.000000 -0.000000
vn 0.000000 100.000000 -0.000000
vn 0.000000 100.000000 -0.000000
vn 0.000000 100.000000 -0.000000
vn 0.000000 100.000000 -0.000000
vn 0.000000 100.000000 -0.000000
vn 0.000000 100.000000 -0.000000
vn 0.000000 -100.000000 0.000000
vn 0.000000 -100.000000 0.000000
vn 0.000000 -100.000000 0.000000
vn 0.000000 -100.000000 0.000000
usemtl Steel_-_Satin
f 5/1/1 1/2/2 4/3/3
f 4/3/3 1/2/2 2/4/4
f 4/3/3 2/4/4 3/5/5
f 10/6/6 6/7/7 9/8/8
f 9/8/8 6/7/7 7/9/9
f 9/8/8 7/9/9 8/10/10
f 2/11/11 1/12/12 6/13/13
f 6/13/13 1/12/12 7/14/14
f 4/15/15 9/16/16 5/17/17
f 5/17/17 9/16/16 8/18/18
f 3/19/19 10/20/20 4/21/21
f 4/21/21 10/20/20 9/22/22
f 11/23/23 12/24/24 14/25/25
f 14/25/25 12/24/24 13/26/26
f 12/27/27 15/28/28 13/29/29
f 13/29/29 15/28/28 16/30/30
f 15/31/31 17/32/32 16/33/33
f 16/33/33 17/32/32 18/34/34
f 17/35/35 11/36/36 18/37/37
f 18/37/37 11/36/36 14/38/38
f 18/39/39 14/40/40 16/41/41
f 16/41/41 14/40/40 13/42/42
f 19/43/43 20/44/44 22/45/45
f 22/45/45 20/44/44 21/46/46
f 20/47/47 23/48/48 21/49/49
f 21/49/49 23/48/48 24/50/50
f 23/51/51 25/52/52 24/53/53
f 24/53/53 25/52/52 26/54/54
f 25/55/55 19/56/56 26/57/57
f 26/57/57 19/56/56 22/58/58
f 26/59/59 22/60/60 24/61/61
f 24/61/61 22/60/60 21/62/62
f 2/63/63 19/64/64 3/65/65
f 3/65/65 19/64/64 25/66/66
f 3/65/65 25/66/66 23/67/67
f 6/68/68 17/69/69 2/63/63
f 2/63/63 17/69/69 15/70/70
f 2/63/63 15/70/70 12/71/71
f 17/69/69 6/68/68 11/72/72
f 11/72/72 6/68/68 10/73/73
f 11/72/72 10/73/73 20/74/74
f 20/74/74 10/73/73 23/67/67
f 23/67/67 10/73/73 3/65/65
f 11/72/72 20/74/74 12/71/71
f 12/71/71 20/74/74 19/64/64
f 12/71/71 19/64/64 2/63/63
f 1/75/75 5/76/76 7/77/77
f 7/77/77 5/76/76 8/78/78
g Right Pillar

v 0.021000 0.016000 -0.004000
v 0.029000 0.016000 -0.004000
v 0.029000 0.016000 0.004000
v 0.021000 0.016000 0.004000
v 0.029000 0.044000 -0.004000
v 0.029000 0.044000 0.004000
v 0.021000 0.044000 0.004000
v 0.021000 0.044000 -0.004000
vt 0.400000 0.400000 0.000000
vt -0.400000 0.400000 0.000000
vt 0.400000 -0.400000 0.000000
vt -0.400000 -0.400000 0.000000
vt 0.800000 1.400000 0.000000
vt 0.000000 1.400000 0.000000
vt 0.800000 -1.400000 0.000000
vt -0.000000 -1.400000 0.000000
vt 0.800000 1.400000 0.000000
vt 0.000000 1.400000 0.000000
vt 0.800000 -1.400000 0.000000
vt 0.000000 -1.400000 0.000000
vt 0.800000 1.400000 0.000000
vt -0.000000 1.400000 0.000000
vt 0.800000 -1.400000 0.000000
vt 0.000000 -1.400000 0.000000
vt 0.800000 1.400000 0.000000
vt 0.000000 1.400000 0.000000
vt 0.800000 -1.400000 0.000000
vt -0.000000 -1.400000 0.000000
vt 0.400000 0.400000 0.000000
vt -0.400000 0.400000 0.000000
vt 0.400000 -0.400000 0.000000
vt -0.400000 -0.400000 0.000000
vn 0.000000 -100.000000 0.000000
vn 0.000000 -100.000000 0.000000
vn 0.000000 -100.000000 0.000000
vn 0.000000 -100.000000 0.000000
vn 100.000000 0.000000 0.000000
vn 100.000000 0.000000 0.000000
vn 100.000000 0.000000 0.000000
vn 100.000000 0.000000 0.000000
vn 0.000000 0.000000 100.000000
vn 0.000000 0.000000 100.000000
vn 0.000000 0.000000 100.000000
vn 0.000000 0.000000 100.000000
vn -100.000000 0.000000 -0.000000
vn -100.000000 0.000000 -0.000000
vn -100.000000 0.000000 -0.000000
vn -100.000000 0.000000 -0.000000
vn 0.000000 -0.000000 -100.000000
vn 0.000000 -0.000000 -100.000000
vn 0.000000 -0.000000 -100.000000
vn 0.000000 -0.000000 -100.000000
vn 0.000000 100.000000 -0.000000
vn 0.000000 100.000000 -0.000000
vn 0.000000 100.000000 -0.000000
vn 0.000000 100.000000 -0.000000
f 27/79/79 28/80/80 30/81/81
f 30/81/81 28/80/80 29/82/82
f 31/83/83 32/84/84 28/85/85
f 28/85/85 32/84/84 29/86/86
f 32/87/87 33/88/88 29/89/89
f 29/89/89 33/88/88 30/90/90
f 33/91/91 34/92/92 30/93/93
f 30/93/93 34/92/92 27/94/94
f 34/95/95 31/96/96 27/97/97
f 27/97/97 31/96/96 28/98/98
f 31/99/99 34/100/100 32/101/101
f 32/101/101 34/100/100 33/102/102
g Left Pillar

v -0.021000 0.016000 -0.004000
v -0.021000 0.016000 0.004000
v -0.029000 0.016000 0.004000
v -0.029000 0.016000 -0.004000
v -0.021000 0.044000 0.004000
v -0.029000 0.044000 0.004000
v -0.029000 0.044000 -0.004000
v -0.021000 0.044000 -0.004000
vt -0.400000 -0.400000 0.000000
vt 0.400000 -0.400000 0.000000
vt -0.400000 0.400000 0.000000
vt 0.400000 0.400000 0.000000
vt 0.800000 1.400000 0.000000
vt 0.000000 1.400000 0.000000
vt 0.800000 -1.400000 0.000000
vt 0.000000 -1.400000 0.000000
vt 0.800000 1.400000 0.000000
vt -0.000000 1.400000 0.000000
vt 0.800000 -1.400000 0.000000
vt 0.000000 -1.400000 0.000000
vt 0.800000 1.400000 0.000000
vt 0.000000 1.400000 0.000000
vt 0.800000 -1.400000 0.000000
vt 0.000000 -1.400000 0.000000
vt 0.800000 1.400000 0.000000
vt 0.000000 1.400000 0.000000
vt 0.800000 -1.400000 0.000000
vt -0.000000 -1.400000 0.000000
vt 0.400000 0.400000 0.000000
vt -0.400000 0.400000 0.000000
vt 0.400000 -0.400000 0.000000
vt -0.400000 -0.400000 0.000000
vn 0.000000 -100.000000 0.000000
vn 0.000000 -100.000000 0.000000
vn 0.000000 -100.000000 0.000000
vn 0.000000 -100.000000 0.000000
vn 0.000000 0.000000 100.000000
vn 0.000000 0.000000 100.000000
vn 0.000000 0.000000 100.000000
vn 0.000000 0.000000 100.000000
vn -100.000000 0.000000 -0.000000
vn -100.000000 0.000000 -0.000000
vn -100.000000 0.000000 -0.000000
vn -100.000000 0.000000 -0.000000
vn 0.000000 -0.000000 -100.000000
vn 0.000000 -0.000000 -100.000000
vn 0.000000 -0.000000 -100.000000
vn 0.000000 -0.000000 -100.000000
vn 100.000000 0.000000 0.000000
vn 100.000000 0.000000 0.000000
vn 100.000000 0.000000 0.000000
vn 100.000000 0.000000 0.000000
vn 0.000000 100.000000 -0.000000
vn 0.000000 100.000000 -0.000000
vn 0.000000 100.000000 -0.000000
vn 0.000000 100.000000 -0.000000
f 36/103/103 37/104/104 35/105/105
f 35/105/105 37/104/104 38/106/106
f 39/107/107 40/108/108 36/109/109
f 36/109/109 40/108/108 37/110/110
f 40/111/111 41/112/112 37/113/113
f 37/113/113 41/112/112 38/114/114
f 41/115/115 42/116/116 38/117/117
f 38/117/117 42/116/116 35/118/118
f 42/119/119 39/120/120 35/121/121
f 35/121/121 39/120/120 36/122/122
f 42/123/123 41/124/124 39/125/125
f 39/125/125 41/124/124 40/126/126
# 42 vertices
# 126 texture params
# 126 normals
# 72 facets

# 3 groups
